# xmcd
#
# Track frame offsets: 
#        150
#        16570
#        32902
#        51459
#        70149
#        86825
#        103143
#        117747
#        134946
#        150648
#        166784
#        186986
#
# Disc length: 2900 seconds
#
# Revision: 3
# Processed by: cddbd v1.5PL3 Copyright (c) Steve Scherf et al.
# Submitted via: ExactAudioCopy v0.95a3
#
DISCID=ac0b520c
DTITLE=Sherrié Austin - Streets Of Heaven
DYEAR=2003
DGENRE=Country
TTITLE0=Singin' To The Scarecrow
TTITLE1=Small Town Boy
TTITLE2=Ride'Em Cowgirl
TTITLE3=Driving Into The Sun
TTITLE4=Fools Like Us
TTITLE5=Somebody's Somebody
TTITLE6=Love Unafraid
TTITLE7=This Town Is That Small
TTITLE8=Remind Me
TTITLE9=I'm Still Fallin'
TTITLE10=Streets Of Heaven
TTITLE11=Like A Cat
EXTD=
EXTT0=
EXTT1=
EXTT2=
EXTT3=
EXTT4=
EXTT5=
EXTT6=
EXTT7=
EXTT8=
EXTT9=
EXTT10=
EXTT11=
PLAYORDER=
